inDegrees=yes
name=ik_lifting_orientations
DataType=double
version=3
OpenSimVersion=4.5-2024-01-10-34fd6af
endheader
time	pelvis_tilt	pelvis_list	pelvis_rotation	pelvis_tx	pelvis_ty	pelvis_tz	hip_flexion_r	hip_adduction_r	hip_rotation_r	knee_angle_r	knee_angle_r_beta	ankle_angle_r	subtalar_angle_r	mtp_angle_r	hip_flexion_l	hip_adduction_l	hip_rotation_l	knee_angle_l	knee_angle_l_beta	ankle_angle_l	subtalar_angle_l	mtp_angle_l	lumbar_extension	lumbar_bending	lumbar_rotation	arm_flex_r	arm_add_r	arm_rot_r	elbow_flex_r	pro_sup_r	wrist_flex_r	wrist_dev_r	arm_flex_l	arm_add_l	arm_rot_l	elbow_flex_l	pro_sup_l	wrist_flex_l	wrist_dev_l
3.17	-0.2647453042005797	2.316048583314502	-93.27236850894211	0	0.9399999998679526	0	44.88199498519695	-10.01949066085268	0	59.93514335148187	1.046065589138148	-5.00272650402128	0	0	44.88199498519695	-10.01949066085268	0	59.93514335148187	1.046065589138148	-5.00272650402128	0	0	1.682278150967386	0.1977442589900045	-1.22341168227339	75.7002729440938	12.13487028482173	58.80395677686776	50.26523668073799	1.165881893318273	0	0	0	-12.28329084331695	0	88.855568945606	1.165881893318273	0	0
3.18	-0.186045285425594	2.48065661090782	-92.76582438600899	0	0.9399999998679526	0	44.88237218526437	-10.01933699100529	0	59.93534781827337	1.04606915775687	-5.002700549568721	0	0	44.88237218526437	-10.01933699100529	0	59.93534781827337	1.04606915775687	-5.002700549568721	0	0	1.789094874808431	0.08644650698786752	-1.668135890375016	76.73945625300863	12.97513745459687	60.51425660749008	52.0916257667071	1.163040454708852	0	0	0	-12.2885313266602	0	88.85835766964641	1.163040454708852	0	0
3.19	-0.1340194496161082	2.599069015263308	-92.01713899693868	0	0.9399999998679526	0	44.88240358462554	-10.01931893635929	0	59.93536138166805	1.046069394482765	-5.002697259620795	0	0	44.88240358462554	-10.01931893635929	0	59.93536138166805	1.046069394482765	-5.002697259620795	0	0	1.919771093157566	0.02342336390379028	-2.399614154101692	77.22368546572511	13.4146479513197	61.72890269939839	51.60422543258608	1.162824480872091	0	0	0	-12.28890187268745	0	88.85856963629678	1.162824480872091	0	0
3.2	-0.08047330425169057	2.728708246836089	-91.33433589399577	0	0.9399999998679526	0	44.88244679205688	-10.01929426087528	0	59.93538013469476	1.046069721784826	-5.002692770151169	0	0	44.88244679205688	-10.01929426087528	0	59.93538013469476	1.046069721784826	-5.002692770151169	0	0	1.932615740753104	-0.0700487751289087	-3.030110899153049	77.39213374967282	14.22214319817299	61.75383829379955	48.4282847984918	1.162526717552799	0	0	0	-12.28941356081165	0	88.85886187491771	1.162526717552799	0	0
3.21	-0.02603103442103205	2.84366980048368	-90.66170884048225	0	0.9399999998679526	0	44.88248002880331	-10.01927528552732	0	59.93539455462602	1.046069973460104	-5.002689318682861	0	0	44.88248002880331	-10.01927528552732	0	59.93539455462602	1.046069973460104	-5.002689318682861	0	0	1.915593962937398	-0.1548939562245029	-3.620209819502138	77.65822661432794	14.61247882877524	62.24856128659913	47.28998235502027	1.162297684240085	0	0	0	-12.28980710391115	0	88.8590866587478	1.162297684240085	0	0
3.22	0.04084372504051691	3.016557883645155	-90.04362726603004	0	0.9399999998679526	0	44.88251596536077	-10.01925466163617	0	59.93541007630857	1.04607024436457	-5.002685563970585	0	0	44.88251596536077	-10.01925466163617	0	59.93541007630857	1.04607024436457	-5.002685563970585	0	0	1.957035722625999	-0.278659289512304	-4.146906245741129	78.16256160324477	14.67574358588249	63.04836008330263	47.8898496519873	1.162050461073896	0	0	0	-12.29023129560021	0	88.85932929492805	1.162050461073896	0	0
3.23	0.1070580373802179	3.261075616192445	-89.47508540612709	0	0.9399999998679526	0	44.88279101030196	-10.01913777367054	0	59.93555587370887	1.046072789009246	-5.002665604644662	0	0	44.88279101030196	-10.01913777367054	0	59.93555587370887	1.046072789009246	-5.002665604644662	0	0	2.205667784326075	-0.3808325340384834	-4.399125005608576	79.18168471493635	16.12501542320731	63.47923772409679	46.97824443787	1.159997523113984	0	0	0	-12.29399192245773	0	88.86134414625253	1.159997523113984	0	0
3.24	0.1479915248099115	3.378548942737546	-88.96909402713656	0	0.9399999998679526	0	44.88284771097793	-10.01910545199758	0	59.93558040548747	1.046073217169554	-5.002659733249846	0	0	44.88284771097793	-10.01910545199758	0	59.93558040548747	1.046073217169554	-5.002659733249846	0	0	2.2560305329936	-0.4455597875020642	-4.846314015382491	79.9802487039823	17.868508981366	63.59575944360412	44.6077414050836	1.159606950208752	0	0	0	-12.29466271610356	0	88.86172747247157	1.159606950208752	0	0
3.25	0.1737569482771002	3.435892870479811	-88.51480797064839	0	0.9399999998679526	0	44.88289623364776	-10.01907828013078	0	59.93560168131484	1.046073588502793	-5.002654815597691	0	0	44.88289623364776	-10.01907828013078	0	59.93560168131484	1.046073588502793	-5.002654815597691	0	0	2.185831064419325	-0.4749086871501024	-5.731424189254916	80.52451509675119	19.51739251306385	63.9835901869441	42.20636782339015	1.15927094456592	0	0	0	-12.29524235512641	0	88.86205724390832	1.15927094456592	0	0
3.26	0.1937964755916757	3.529538131545017	-88.07710666385606	0	0.9399999998679526	0	44.88293684721281	-10.01905517794975	0	59.93561925645852	1.046073895246917	-5.002650622726922	0	0	44.88293684721281	-10.01905517794975	0	59.93561925645852	1.046073895246917	-5.002650622726922	0	0	2.217425874546285	-0.5019822097811635	-6.354812511613455	80.93939188694267	20.45515353498867	64.61422974124164	40.92963484743754	1.158991111913964	0	0	0	-12.29572303183638	0	88.86233188455006	1.158991111913964	0	0
3.27	0.2274283146204907	3.615572711160184	-87.60513308429398	0	0.9399999998679526	0	44.88298531054469	-10.01902756032797	0	59.93564018618044	1.046074260539476	-5.002645609505612	0	0	44.88298531054469	-10.01902756032797	0	59.93564018618044	1.046074260539476	-5.002645609505612	0	0	2.038363829231553	-0.5916184611278456	-6.78399361479224	82.03958285377857	21.9468807404996	65.06663121083142	39.83840125741998	1.15865742794913	0	0	0	-12.29629585666841	0	88.86265937734352	1.15865742794913	0	0
3.28	0.2289151029993058	3.615437946513504	-87.28776779085413	0	0.9399999998679526	0	44.883025706882	-10.01900460670703	0	59.93565766003217	1.046074565515722	-5.002641446235573	0	0	44.883025706882	-10.01900460670703	0	59.93565766003217	1.046074565515722	-5.002641446235573	0	0	1.543565842121111	-0.6690918168211697	-6.520672573826104	83.23693786279789	22.44161006018771	65.31336362488099	38.47268310679034	1.158379091230338	0	0	0	-12.29677393994587	0	88.86293254980824	1.158379091230338	0	0
